<svg width="58" height="50" viewBox="0 0 58 50" fill="none" xmlns="http://www.w3.org/2000/svg">
<path fill-rule="evenodd" clip-rule="evenodd" d="M41.9862 6.65676C37.5269 2.52538 31.5584 0 25 0C11.1929 0 0 11.1929 0 25C0 38.8071 11.1929 50 25 50C38.8071 50 50 38.8071 50 25C50 22.4809 49.6274 20.0489 48.9344 17.756L26.1785 40.5118C25.5276 41.1627 24.4724 41.1627 23.8215 40.5118L5.82149 22.5118C5.17062 21.861 5.17062 20.8057 5.82149 20.1548L12.4882 13.4882C13.139 12.8373 14.1943 12.8373 14.8452 13.4882L25 23.643L41.9862 6.65676Z" fill="white" fill-opacity="0.5"/>
<path fill-rule="evenodd" clip-rule="evenodd" d="M25 26L51 0L57.6667 6.66667L25 39.3333L7 21.3333L13.6667 14.6667L25 26Z" fill="white"/>
</svg>
